<?xml version="1.0" encoding="UTF-8" standalone="no"?>
<!-- Created with Inkscape (http://www.inkscape.org/) -->

<svg
   width="250"
   height="250"
   viewBox="0 0 66.145833 66.145834"
   version="1.1"
   id="svg5"
   inkscape:version="1.1.1 (3bf5ae0d25, 2021-09-20)"
   sodipodi:docname="drawing.svg"
   xmlns:inkscape="http://www.inkscape.org/namespaces/inkscape"
   xmlns:sodipodi="http://sodipodi.sourceforge.net/DTD/sodipodi-0.dtd"
   xmlns:xlink="http://www.w3.org/1999/xlink"
   xmlns="http://www.w3.org/2000/svg"
   xmlns:svg="http://www.w3.org/2000/svg">
  <sodipodi:namedview
     id="namedview7"
     pagecolor="#505050"
     bordercolor="#eeeeee"
     borderopacity="1"
     inkscape:pageshadow="0"
     inkscape:pageopacity="0"
     inkscape:pagecheckerboard="0"
     inkscape:document-units="mm"
     showgrid="false"
     inkscape:zoom="2"
     inkscape:cx="-5.5"
     inkscape:cy="62"
     inkscape:window-width="2503"
     inkscape:window-height="1399"
     inkscape:window-x="1299"
     inkscape:window-y="0"
     inkscape:window-maximized="0"
     inkscape:current-layer="layer1"
     units="px" />
  <defs
     id="defs2">
    <linearGradient
       inkscape:collect="always"
       id="linearGradient8120">
      <stop
         style="stop-color:#000000;stop-opacity:1;"
         offset="0"
         id="stop8116" />
      <stop
         style="stop-color:#000000;stop-opacity:0;"
         offset="1"
         id="stop8118" />
    </linearGradient>
    <linearGradient
       id="linearGradient4999"
       inkscape:collect="always">
      <stop
         id="stop4995"
         offset="0"
         style="stop-color:#fff5da;stop-opacity:1" />
      <stop
         id="stop4997"
         offset="1"
         style="stop-color:#ead8a2;stop-opacity:0.93333334" />
    </linearGradient>
    <linearGradient
       inkscape:collect="always"
       xlink:href="#linearGradient4999"
       id="linearGradient3910-7"
       x1="302.85715"
       y1="962.36218"
       x2="475"
       y2="790.21936"
       gradientUnits="userSpaceOnUse"
       gradientTransform="matrix(0.0487502,0,0,0.05041689,8.3444914,14.33356)" />
    <linearGradient
       inkscape:collect="always"
       xlink:href="#linearGradient4999"
       id="linearGradient3918-0"
       x1="328.57144"
       y1="628.07648"
       x2="592.14288"
       y2="891.64789"
       gradientUnits="userSpaceOnUse"
       gradientTransform="matrix(0.0487502,0,0,0.05041689,8.3444914,14.33356)" />
    <linearGradient
       inkscape:collect="always"
       xlink:href="#linearGradient4999"
       id="linearGradient3920-0"
       x1="614.44031"
       y1="914.50488"
       x2="332.8577"
       y2="635.93347"
       gradientUnits="userSpaceOnUse"
       gradientTransform="matrix(0.0487502,0,0,0.05041689,8.3444914,14.33356)" />
    <linearGradient
       inkscape:collect="always"
       xlink:href="#linearGradient4999"
       id="linearGradient2361"
       gradientUnits="userSpaceOnUse"
       x1="13.351592"
       y1="82.848343"
       x2="30.240786"
       y2="103.7316" />
    <filter
       inkscape:collect="always"
       style="color-interpolation-filters:sRGB"
       id="filter2970"
       x="-0.10276276"
       y="-0.10276283"
       width="1.2055255"
       height="1.2055257">
      <feGaussianBlur
         inkscape:collect="always"
         stdDeviation="2.4210464"
         id="feGaussianBlur2972" />
    </filter>
    <linearGradient
       inkscape:collect="always"
       xlink:href="#linearGradient3904"
       id="linearGradient3910-7-1"
       x1="302.85715"
       y1="962.36218"
       x2="475"
       y2="790.21936"
       gradientUnits="userSpaceOnUse"
       gradientTransform="matrix(0.04875021,0,0,0.05041686,-0.22206331,-28.822213)" />
    <linearGradient
       inkscape:collect="always"
       id="linearGradient3904">
      <stop
         style="stop-color:#0288d1;stop-opacity:1"
         offset="0"
         id="stop3906" />
      <stop
         style="stop-color:#b3e5fc;stop-opacity:1"
         offset="1"
         id="stop3908" />
    </linearGradient>
    <linearGradient
       inkscape:collect="always"
       xlink:href="#linearGradient3904"
       id="linearGradient3918-0-7"
       x1="328.57144"
       y1="628.07648"
       x2="592.14288"
       y2="891.64789"
       gradientUnits="userSpaceOnUse"
       gradientTransform="matrix(0.04875021,0,0,0.05041686,-0.22206331,-28.822213)" />
    <linearGradient
       inkscape:collect="always"
       xlink:href="#linearGradient3904"
       id="linearGradient3920-0-3"
       x1="614.44031"
       y1="914.50488"
       x2="332.8577"
       y2="635.93347"
       gradientUnits="userSpaceOnUse"
       gradientTransform="matrix(0.04875021,0,0,0.05041686,-0.22206331,-28.822213)" />
    <radialGradient
       inkscape:collect="always"
       xlink:href="#linearGradient4548"
       id="radialGradient4544"
       cx="-944.92383"
       cy="-435.92038"
       fx="-944.92383"
       fy="-435.92038"
       r="312.46155"
       gradientTransform="matrix(0.01467376,0.02026421,-0.01616568,0.01251998,28.358222,33.904407)"
       gradientUnits="userSpaceOnUse" />
    <linearGradient
       id="linearGradient4548"
       inkscape:collect="always">
      <stop
         style="stop-color:#e1f5fe;stop-opacity:1"
         offset="0"
         id="stop4552" />
      <stop
         style="stop-color:#0288d1;stop-opacity:1"
         offset="1"
         id="stop4550" />
    </linearGradient>
    <radialGradient
       inkscape:collect="always"
       xlink:href="#linearGradient3925"
       id="radialGradient4682"
       gradientUnits="userSpaceOnUse"
       gradientTransform="matrix(0.73537201,-0.66863365,0.67914741,0.74693517,-702.52354,-127.75808)"
       cx="-493.04559"
       cy="455.03564"
       fx="-493.04559"
       fy="455.03564"
       r="210.90039" />
    <linearGradient
       id="linearGradient3925"
       inkscape:collect="always">
      <stop
         id="stop3927"
         offset="0"
         style="stop-color:#e1f5fe;stop-opacity:1" />
      <stop
         id="stop3929"
         offset="1"
         style="stop-color:#b3e5fc;stop-opacity:1" />
    </linearGradient>
    <filter
       inkscape:collect="always"
       style="color-interpolation-filters:sRGB"
       id="filter4529"
       x="-0.19108984"
       width="1.3821797"
       y="-0.093040909"
       height="1.1860818">
      <feGaussianBlur
         inkscape:collect="always"
         stdDeviation="30.465674"
         id="feGaussianBlur4531" />
    </filter>
    <linearGradient
       inkscape:collect="always"
       xlink:href="#linearGradient6162"
       id="linearGradient3910-3"
       x1="302.85715"
       y1="962.36218"
       x2="475"
       y2="790.21936"
       gradientUnits="userSpaceOnUse"
       gradientTransform="matrix(0.04875019,0,0,0.05041686,31.569142,1.1625967)" />
    <linearGradient
       inkscape:collect="always"
       id="linearGradient6162">
      <stop
         style="stop-color:#0d5302;stop-opacity:1"
         offset="0"
         id="stop6164" />
      <stop
         style="stop-color:#14e715;stop-opacity:1"
         offset="1"
         id="stop6166" />
    </linearGradient>
    <linearGradient
       inkscape:collect="always"
       xlink:href="#linearGradient6162"
       id="linearGradient3918-3"
       x1="328.57144"
       y1="628.07648"
       x2="592.14288"
       y2="891.64789"
       gradientUnits="userSpaceOnUse"
       gradientTransform="matrix(0.04875019,0,0,0.05041686,31.569142,1.1625967)" />
    <linearGradient
       inkscape:collect="always"
       xlink:href="#linearGradient6162"
       id="linearGradient3920-8"
       x1="614.44031"
       y1="914.50488"
       x2="332.8577"
       y2="635.93347"
       gradientUnits="userSpaceOnUse"
       gradientTransform="matrix(0.04875019,0,0,0.05041686,31.569142,1.1625967)" />
    <linearGradient
       inkscape:collect="always"
       xlink:href="#linearGradient6162"
       id="linearGradient6179"
       x1="302.18558"
       y1="702.36218"
       x2="480.44699"
       y2="296.64792"
       gradientUnits="userSpaceOnUse"
       gradientTransform="matrix(0.02721857,0,0,0.02814912,44.373662,26.829168)" />
    <linearGradient
       inkscape:collect="always"
       xlink:href="#linearGradient4489"
       id="linearGradient4130"
       x1="-1851.4285"
       y1="652.36218"
       x2="-1657.1428"
       y2="1378.0764"
       gradientUnits="userSpaceOnUse"
       gradientTransform="matrix(0.00782398,0,0,0.00809146,65.160572,6.1812622)" />
    <linearGradient
       id="linearGradient4489"
       inkscape:collect="always">
      <stop
         id="stop4491"
         offset="0"
         style="stop-color:#ffeb3b;stop-opacity:1" />
      <stop
         id="stop4493"
         offset="1"
         style="stop-color:#fff59d;stop-opacity:1" />
    </linearGradient>
    <linearGradient
       inkscape:collect="always"
       xlink:href="#linearGradient4489"
       id="linearGradient3910-8"
       x1="302.85715"
       y1="962.36218"
       x2="475"
       y2="790.21936"
       gradientUnits="userSpaceOnUse"
       gradientTransform="matrix(0.04875019,0,0,0.05041686,27.271234,-26.01842)" />
    <linearGradient
       inkscape:collect="always"
       xlink:href="#linearGradient4489"
       id="linearGradient3918-33"
       x1="328.57144"
       y1="628.07648"
       x2="592.14288"
       y2="891.64789"
       gradientUnits="userSpaceOnUse"
       gradientTransform="matrix(0.04875019,0,0,0.05041686,27.271234,-26.01842)" />
    <linearGradient
       inkscape:collect="always"
       xlink:href="#linearGradient4489"
       id="linearGradient3920-81"
       x1="614.44031"
       y1="914.50488"
       x2="332.8577"
       y2="635.93347"
       gradientUnits="userSpaceOnUse"
       gradientTransform="matrix(0.04875019,0,0,0.05041686,27.271234,-26.01842)" />
    <linearGradient
       inkscape:collect="always"
       xlink:href="#linearGradient5301"
       id="linearGradient3910"
       x1="302.85715"
       y1="962.36218"
       x2="475"
       y2="790.21936"
       gradientUnits="userSpaceOnUse"
       gradientTransform="matrix(0.04875019,0,0,0.05041686,-12.037327,-4.1165213)" />
    <linearGradient
       id="linearGradient5301"
       inkscape:collect="always">
      <stop
         id="stop5303"
         offset="0"
         style="stop-color:#e65100;stop-opacity:1" />
      <stop
         id="stop5305"
         offset="1"
         style="stop-color:#ffb74d;stop-opacity:1" />
    </linearGradient>
    <linearGradient
       inkscape:collect="always"
       xlink:href="#linearGradient5301"
       id="linearGradient3918"
       x1="328.57144"
       y1="628.07648"
       x2="592.14288"
       y2="891.64789"
       gradientUnits="userSpaceOnUse"
       gradientTransform="matrix(0.04875019,0,0,0.05041686,-12.037327,-4.1165213)" />
    <linearGradient
       inkscape:collect="always"
       xlink:href="#linearGradient5301"
       id="linearGradient3920"
       x1="614.44031"
       y1="914.50488"
       x2="332.8577"
       y2="635.93347"
       gradientUnits="userSpaceOnUse"
       gradientTransform="matrix(0.04875019,0,0,0.05041686,-12.037327,-4.1165213)" />
    <linearGradient
       inkscape:collect="always"
       xlink:href="#linearGradient5301"
       id="linearGradient5497"
       x1="-1400.3417"
       y1="1278.636"
       x2="-1400.3417"
       y2="4638.6357"
       gradientUnits="userSpaceOnUse"
       gradientTransform="matrix(0.00312122,0,0,0.00322792,16.013122,25.504011)" />
    <linearGradient
       inkscape:collect="always"
       xlink:href="#linearGradient4999"
       id="linearGradient2361-2"
       gradientUnits="userSpaceOnUse"
       x1="12.431362"
       y1="82.489647"
       x2="29.05398"
       y2="96.852882"
       gradientTransform="matrix(0.17106906,0,0,0.17691765,29.566269,39.167557)" />
    <filter
       inkscape:collect="always"
       style="color-interpolation-filters:sRGB"
       id="filter8833"
       x="-0.61343448"
       y="-0.72094701"
       width="2.2447347"
       height="2.4240283">
      <feGaussianBlur
         inkscape:collect="always"
         stdDeviation="1.4430157"
         id="feGaussianBlur8835" />
    </filter>
    <linearGradient
       inkscape:collect="always"
       xlink:href="#linearGradient8120"
       id="linearGradient9035"
       gradientUnits="userSpaceOnUse"
       x1="-6.8130207"
       y1="12.567708"
       x2="71.040627"
       y2="61.383335"
       gradientTransform="matrix(0.21927429,0,0,0.22677095,6.4731836,2.5606851)" />
    <linearGradient
       inkscape:collect="always"
       xlink:href="#linearGradient8120"
       id="linearGradient9037"
       gradientUnits="userSpaceOnUse"
       x1="-6.8130207"
       y1="12.567708"
       x2="71.040627"
       y2="61.383335"
       gradientTransform="matrix(0.21927429,0,0,0.22677095,6.4731836,2.5606851)" />
    <linearGradient
       inkscape:collect="always"
       xlink:href="#linearGradient8120"
       id="linearGradient9039"
       gradientUnits="userSpaceOnUse"
       x1="-6.8130207"
       y1="12.567708"
       x2="71.040627"
       y2="61.383335"
       gradientTransform="matrix(0.21927429,0,0,0.22677095,6.4731836,2.5606851)" />
    <linearGradient
       inkscape:collect="always"
       xlink:href="#linearGradient8120"
       id="linearGradient9041"
       gradientUnits="userSpaceOnUse"
       x1="-6.8130207"
       y1="12.567708"
       x2="71.040627"
       y2="61.383335"
       gradientTransform="matrix(0.21927429,0,0,0.22677095,6.4731836,2.5606851)" />
    <linearGradient
       inkscape:collect="always"
       xlink:href="#linearGradient8120"
       id="linearGradient9043"
       gradientUnits="userSpaceOnUse"
       x1="-6.8130207"
       y1="12.567708"
       x2="71.040627"
       y2="61.383335"
       gradientTransform="matrix(0.21927429,0,0,0.22677095,6.4731836,2.5606851)" />
  </defs>
  <g
     inkscape:label="Layer 1"
     inkscape:groupmode="layer"
     id="layer1">
    <path
       id="path5574-4"
       style="opacity:0.600775;mix-blend-mode:normal;fill:#800080;fill-opacity:1;stroke:#ffffff;stroke-width:3.77953;stroke-miterlimit:4;stroke-dasharray:none;stroke-opacity:1;filter:url(#filter8833)"
       d="m 223.60416,85.493178 a 105.77607,105.77607 0 0 1 8.47933,41.496042 v 0 a 105.77607,105.77607 0 0 1 -0.11015,4.82613"
       transform="matrix(0.21927429,0,0,0.22677095,6.4731836,2.5606851)" />
    <path
       id="path7738-2"
       style="opacity:0.600775;mix-blend-mode:normal;fill:#800080;fill-opacity:1;stroke:#ffffff;stroke-width:3.77953;stroke-miterlimit:4;stroke-dasharray:none;stroke-opacity:1;filter:url(#filter8833)"
       d="m 111.15793,22.303644 a 105.77607,105.77607 0 0 1 15.14949,-1.090493 105.77607,105.77607 0 0 1 38.93117,7.42496"
       transform="matrix(0.21927429,0,0,0.22677095,6.4731836,2.5606851)" />
    <path
       id="path7743-1"
       style="opacity:0.600775;mix-blend-mode:normal;fill:#800080;fill-opacity:1;stroke:#ffffff;stroke-width:3.77953;stroke-miterlimit:4;stroke-dasharray:none;stroke-opacity:1;filter:url(#filter8833)"
       d="M 22.792524,105.23505 A 105.77607,105.77607 0 0 1 41.267674,64.085968"
       transform="matrix(0.21927429,0,0,0.22677095,6.4731836,2.5606851)" />
    <path
       id="path7908-9"
       style="opacity:0.600775;mix-blend-mode:normal;fill:#800080;fill-opacity:1;stroke:#ffffff;stroke-width:3.77953;stroke-miterlimit:4;stroke-dasharray:none;stroke-opacity:1;filter:url(#filter8833)"
       d="M 73.280911,218.5139 A 105.77607,105.77607 0 0 1 38.07937,185.33636"
       transform="matrix(0.21927429,0,0,0.22677095,6.4731836,2.5606851)" />
    <path
       id="path7993-0"
       style="opacity:0.600775;mix-blend-mode:normal;fill:#800080;fill-opacity:1;stroke:#ffffff;stroke-width:3.77953;stroke-miterlimit:4;stroke-dasharray:none;stroke-opacity:1;filter:url(#filter8833)"
       d="m 197.06758,205.61223 a 105.77607,105.77607 0 0 1 -43.09524,23.4712"
       transform="matrix(0.21927429,0,0,0.22677095,6.4731836,2.5606851)" />
    <path
       style="fill:url(#linearGradient3910-7);fill-opacity:1;fill-rule:nonzero;stroke:none;stroke-width:0.0364173;stroke-linecap:round;stroke-linejoin:round;stroke-miterlimit:4;stroke-dasharray:none;stroke-opacity:1"
       d="m 31.257082,45.999204 a 8.2875329,8.5708707 0 0 0 -8.287532,8.570871 8.2875329,8.5708707 0 0 0 8.287532,8.57087 8.2875329,8.5708707 0 0 0 8.287533,-8.57087 8.2875329,8.5708707 0 0 0 -0.01228,-0.359319 7.730388,7.9586657 0 0 1 -7.718147,7.705808 7.730388,7.9586657 0 0 1 -7.730333,-7.95868 7.730388,7.9586657 0 0 1 7.403841,-7.946765 8.2875329,8.5708707 0 0 0 -0.230611,-0.01192 z"
       id="path3881-8"
       inkscape:connector-curvature="0" />
    <path
       style="fill:url(#linearGradient3918-0);fill-opacity:1;fill-rule:nonzero;stroke:none;stroke-width:0.0364173;stroke-linecap:round;stroke-linejoin:round;stroke-miterlimit:4;stroke-dasharray:none;stroke-opacity:1"
       d="m 31.884836,46.143266 a 7.5205133,7.7425932 0 0 0 -0.122161,0.0044 7.0984329,7.3131125 2.1754282 0 1 6.560804,5.402386 7.0984329,7.3131125 2.1754282 0 1 -5.025744,8.964261 7.0984329,7.3131125 2.1754282 0 1 -8.690579,-5.156998 7.0984329,7.3131125 2.1754282 0 1 -0.230422,-1.727468 7.5205133,7.7425932 0 0 0 -0.01247,0.256023 7.5205133,7.7425932 0 0 0 7.520574,7.742556 7.5205133,7.7425932 0 0 0 7.520479,-7.742537 7.5205133,7.7425932 0 0 0 -7.520479,-7.742636 z"
       id="ellipse3890-4"
       inkscape:connector-curvature="0" />
    <path
       style="fill:url(#linearGradient3920-0);fill-opacity:1;fill-rule:nonzero;stroke:none;stroke-width:0.0364173;stroke-linecap:round;stroke-linejoin:round;stroke-miterlimit:4;stroke-dasharray:none;stroke-opacity:1"
       d="m 31.469793,46.287329 a 6.890889,7.0943759 0 0 0 -6.890916,7.094404 6.890889,7.0943759 0 0 0 6.890916,7.094306 6.890889,7.0943759 0 0 0 0.224612,-0.0082 6.5078519,6.7000279 0 0 1 -6.349427,-6.691857 6.5078519,6.7000279 0 0 1 6.507865,-6.70003 6.5078519,6.7000279 0 0 1 6.499963,6.46892 6.890889,7.0943759 0 0 0 0.0079,-0.163166 6.890889,7.0943759 0 0 0 -6.890916,-7.094404 z"
       id="ellipse3897-1"
       inkscape:connector-curvature="0" />
    <path
       id="path4761-8"
       style="opacity:0.335271;fill:url(#linearGradient2361);fill-opacity:1;stroke-width:1.00002;stroke-linecap:round;stroke-linejoin:round;filter:url(#filter2970)"
       d="m 5.6640625,55.832031 -0.066406,12.896485 3.0664063,-1.701172 3.5058592,-0.06055 z m 22.2089845,2.927735 -9.162109,9.072265 3.367187,0.964844 2.521484,2.433594 z m -39.980469,10.710937 9.0722658,9.166016 0.9648437,-3.371094 2.43554688,-2.521484 z m 24.828125,0.734375 A 13.909306,13.909306 0 0 0 9.640625,70.669922 13.909306,13.909306 0 0 0 -0.1953125,87.705078 13.909306,13.909306 0 0 0 16.839844,97.539062 13.909306,13.909306 0 0 0 26.675781,80.503906 13.909306,13.909306 0 0 0 12.720703,70.205078 Z m 15.894531,6.259766 1.699219,3.064453 0.06055,3.501953 11.134766,-6.501953 z m -32.5097652,8.710937 -11.1386718,6.503907 12.8984374,0.0625 -1.7050782,-3.0625 z m 33.4121092,4.398438 -0.966797,3.371093 -2.435547,2.521485 12.472657,3.273437 z m -27.6367186,7.40625 -3.2753906,12.476561 9.1640624,-9.07617 -3.3710937,-0.960938 z m 19.0019526,2.5 -3.066406,1.699221 -3.505859,0.0605 6.505859,11.13477 z"
       transform="matrix(0.17106906,0,0,0.17691765,29.566269,39.167557)" />
    <path
       id="path4761-8-3"
       style="mix-blend-mode:multiply;fill:url(#linearGradient2361-2);fill-opacity:1;stroke-width:0.173973;stroke-linecap:round;stroke-linejoin:round"
       d="m 30.535215,49.045228 -0.01136,2.281616 0.524567,-0.300967 0.599744,-0.01071 z m 3.79927,0.517968 -1.567353,1.605044 0.576021,0.170698 0.431348,0.430546 z m -6.839422,1.894954 1.551985,1.62163 0.165054,-0.596406 0.416647,-0.446095 z m 4.247324,0.129924 a 2.3794519,2.4608017 0 0 0 -0.526905,0.08224 2.3794519,2.4608017 0 0 0 -1.682625,3.01382 2.3794519,2.4608017 0 0 0 2.914188,1.739805 2.3794519,2.4608017 0 0 0 1.682625,-3.013819 2.3794519,2.4608017 0 0 0 -2.387283,-1.822046 z m 2.719063,1.107463 0.290684,0.542156 0.01036,0.619557 1.904813,-1.15031 z m -5.561415,1.541119 -1.905482,1.150655 2.206524,0.01106 -0.291686,-0.541811 z m 5.715779,0.778161 -0.16539,0.596405 -0.416646,0.446096 2.133685,0.579129 z m -4.727788,1.310296 -0.560318,2.207324 1.567688,-1.605735 -0.57669,-0.170007 z m 3.250646,0.442294 -0.524567,0.300623 -0.599744,0.01071 1.112951,1.969937 z" />
    <path
       style="fill:url(#linearGradient3910-7-1);fill-opacity:1;fill-rule:nonzero;stroke:none;stroke-width:0.0364173;stroke-linecap:round;stroke-linejoin:round;stroke-miterlimit:4;stroke-dasharray:none;stroke-opacity:1"
       d="M 22.690535,2.8434174 A 8.2875359,8.570867 0 0 0 14.403,11.414284 a 8.2875359,8.570867 0 0 0 8.287535,8.570867 8.2875359,8.570867 0 0 0 8.287536,-8.570867 8.2875359,8.570867 0 0 0 -0.01228,-0.359318 7.7303905,7.9586624 0 0 1 -7.718149,7.705804 7.7303905,7.9586624 0 0 1 -7.730335,-7.958677 7.7303905,7.9586624 0 0 1 7.403843,-7.9467606 8.2875359,8.570867 0 0 0 -0.230612,-0.011915 z"
       id="path3881-8-1"
       inkscape:connector-curvature="0" />
    <path
       style="fill:url(#linearGradient3918-0-7);fill-opacity:1;fill-rule:nonzero;stroke:none;stroke-width:0.0364173;stroke-linecap:round;stroke-linejoin:round;stroke-miterlimit:4;stroke-dasharray:none;stroke-opacity:1"
       d="m 23.318289,2.9874796 a 7.5205161,7.7425899 0 0 0 -0.122161,0.00443 7.0984352,7.3131094 2.175459 0 1 6.560807,5.4023838 7.0984352,7.3131094 2.175459 0 1 -5.025746,8.9642566 7.0984352,7.3131094 2.175459 0 1 -8.690582,-5.156995 7.0984352,7.3131094 2.175459 0 1 -0.230421,-1.727467 7.5205161,7.7425899 0 0 0 -0.01247,0.256023 7.5205161,7.7425899 0 0 0 7.520576,7.742533 7.5205161,7.7425899 0 0 0 7.520482,-7.742533 7.5205161,7.7425899 0 0 0 -7.520482,-7.7426329 z"
       id="ellipse3890-4-2"
       inkscape:connector-curvature="0" />
    <path
       style="fill:url(#linearGradient3920-0-3);fill-opacity:1;fill-rule:nonzero;stroke:none;stroke-width:0.0364173;stroke-linecap:round;stroke-linejoin:round;stroke-miterlimit:4;stroke-dasharray:none;stroke-opacity:1"
       d="m 22.903246,3.1315422 a 6.8908916,7.0943726 0 0 0 -6.890918,7.0944008 6.8908916,7.0943726 0 0 0 6.890918,7.094303 6.8908916,7.0943726 0 0 0 0.224613,-0.0082 6.5078544,6.7000246 0 0 1 -6.34943,-6.691854 6.5078544,6.7000246 0 0 1 6.507868,-6.7000275 6.5078544,6.7000246 0 0 1 6.499965,6.4689175 6.8908916,7.0943726 0 0 0 0.0079,-0.163166 6.8908916,7.0943726 0 0 0 -6.890918,-7.0944008 z"
       id="ellipse3897-1-0"
       inkscape:connector-curvature="0" />
    <path
       style="fill:url(#radialGradient4544);fill-opacity:1;fill-rule:nonzero;stroke:none;stroke-width:0.0204997;stroke-linecap:round;stroke-linejoin:round;stroke-miterlimit:4;stroke-dasharray:none;stroke-opacity:1"
       d="m 19.410717,12.296586 c 0,-1.945737 3.453536,-7.383658 3.453536,-7.383658 0,0 3.453536,5.437923 3.453536,7.383658 0,1.945736 -1.798151,3.690732 -3.453537,3.690732 -1.655385,-1e-6 -3.453536,-1.744996 -3.453535,-3.690732 z"
       id="rect4535"
       inkscape:connector-curvature="0"
       sodipodi:nodetypes="zczaz" />
    <path
       style="fill:url(#radialGradient4682);fill-opacity:1;fill-rule:nonzero;stroke:none;stroke-width:1.5;stroke-linecap:round;stroke-linejoin:round;stroke-miterlimit:4;stroke-dasharray:none;stroke-opacity:1;filter:url(#filter4529)"
       d="m -794.95285,1.4818638 c -0.0473,0.073342 -0.0929,0.142696 -0.14063,0.216797 73.08034,118.5463292 211.888,380.5962692 203.56446,489.9921892 -11.42857,150.20525 -129.52441,234.07366 -259.51368,248.35938 -28.61473,3.14473 -50.72972,5.24578 -73.89453,-0.99805 41.94796,30.15677 90.27739,48.29492 137.08008,48.29492 22.62036,0 45.59659,-4.24739 68.03906,-12.02734 95.04991,-38.34391 177.51563,-139.3368 177.51563,-249.24414 10e-6,-129.69722 -220.18889,-474.467354 -252.65039,-524.5937562 z"
       id="path4680"
       inkscape:connector-curvature="0"
       transform="matrix(0.01343868,0,0,0.01389812,33.519204,4.997028)" />
    <path
       style="fill:url(#linearGradient3910-3);fill-opacity:1;fill-rule:nonzero;stroke:none;stroke-width:0.0364173;stroke-linecap:round;stroke-linejoin:round;stroke-miterlimit:4;stroke-dasharray:none;stroke-opacity:1"
       d="m 54.481731,32.828227 a 8.2875324,8.570867 0 0 0 -8.287532,8.570867 8.2875324,8.570867 0 0 0 8.287532,8.570867 8.2875324,8.570867 0 0 0 8.287532,-8.570867 8.2875324,8.570867 0 0 0 -0.01228,-0.359318 7.7303873,7.9586624 0 0 1 -7.718146,7.705804 7.7303873,7.9586624 0 0 1 -7.730333,-7.958677 7.7303873,7.9586624 0 0 1 7.403841,-7.946761 8.2875324,8.570867 0 0 0 -0.230612,-0.01192 z"
       id="path3881-4"
       inkscape:connector-curvature="0" />
    <path
       style="fill:url(#linearGradient3918-3);fill-opacity:1;fill-rule:nonzero;stroke:none;stroke-width:0.0364173;stroke-linecap:round;stroke-linejoin:round;stroke-miterlimit:4;stroke-dasharray:none;stroke-opacity:1"
       d="m 55.109485,32.97229 a 7.520513,7.7425899 0 0 0 -0.122161,0.0044 7.0984323,7.3131094 2.1754285 0 1 6.560804,5.402384 7.0984323,7.3131094 2.1754285 0 1 -5.025744,8.964256 7.0984323,7.3131094 2.1754285 0 1 -8.690579,-5.156995 7.0984323,7.3131094 2.1754285 0 1 -0.230421,-1.727468 7.520513,7.7425899 0 0 0 -0.01247,0.256024 7.520513,7.7425899 0 0 0 7.520573,7.742533 7.520513,7.7425899 0 0 0 7.520479,-7.742533 7.520513,7.7425899 0 0 0 -7.520479,-7.742632 z"
       id="ellipse3890-0"
       inkscape:connector-curvature="0" />
    <path
       style="fill:url(#linearGradient3920-8);fill-opacity:1;fill-rule:nonzero;stroke:none;stroke-width:0.0364173;stroke-linecap:round;stroke-linejoin:round;stroke-miterlimit:4;stroke-dasharray:none;stroke-opacity:1"
       d="m 54.694442,33.116352 a 6.8908887,7.0943726 0 0 0 -6.890916,7.094401 6.8908887,7.0943726 0 0 0 6.890916,7.094303 6.8908887,7.0943726 0 0 0 0.224613,-0.0082 6.5078517,6.7000246 0 0 1 -6.349427,-6.691854 6.5078517,6.7000246 0 0 1 6.507865,-6.700027 6.5078517,6.7000246 0 0 1 6.499961,6.468917 6.8908887,7.0943726 0 0 0 0.0079,-0.163166 6.8908887,7.0943726 0 0 0 -6.890915,-7.094401 z"
       id="ellipse3897-2"
       inkscape:connector-curvature="0" />
    <path
       inkscape:connector-curvature="0"
       id="path4449-3"
       d="m 55.893861,35.046592 c -0.402796,2.082402 -2.229692,1.938969 -2.831716,4.473001 -0.07011,0.433363 -0.01777,0.81834 0.269867,1.336979 -0.335987,-0.440989 -0.494288,-0.820682 -0.49818,-1.146998 -0.528494,1.573409 -0.123273,3.179721 0.788744,4.80389 0.04041,-0.09978 0.07965,-0.195544 0.120838,-0.298486 0.335323,-0.838187 0.684326,-1.755241 0.886876,-2.408501 0.229374,-0.711892 0.401481,-1.439715 0.526925,-2.173004 0.04598,-0.254448 0.08457,-0.640899 0.113691,-0.964127 0.02911,-0.323035 0.04862,-0.581881 0.05648,-0.581639 0.0079,4.03e-4 0.0041,0.259797 -0.0092,0.583771 -0.01332,0.323334 -0.0364,0.713358 -0.06719,0.972426 -0.09458,0.739492 -0.236576,1.477572 -0.43758,2.203428 -0.190973,0.661263 -0.530008,1.590411 -0.85236,2.432133 -0.07448,0.194472 -0.147651,0.382704 -0.218513,0.564013 -0.279621,0.857515 -0.504248,1.500429 -0.514018,1.497483 l 0.281859,0.07034 c -0.01029,-0.0031 0.215946,-0.716146 0.496075,-1.650242 1.814276,-1.157158 3.020268,-2.745442 3.444327,-4.671516 -0.243352,0.365848 -0.297058,0.3985 -0.689227,0.584244 0.310951,-0.318143 0.514334,-0.373749 0.556401,-0.820853 0.200222,-1.389558 -0.99647,-3.584147 -1.424055,-4.806337 z"
       style="fill:url(#linearGradient6179);fill-rule:evenodd;stroke:none;stroke-width:0.0242782px;stroke-linecap:butt;stroke-linejoin:miter;stroke-opacity:1" />
    <path
       inkscape:connector-curvature="0"
       id="rect4035"
       d="m 48.201415,8.6067257 v 2.47e-5 c -0.283095,0.00196 -0.579325,0.077852 -0.84499,0.2382713 -0.02242,0.013536 -0.04446,0.027594 -0.06611,0.042148 -0.353615,0.2375136 -0.592215,0.5993672 -0.697113,0.9666137 -0.118988,0.4160226 -0.06979,0.8234516 0.04662,1.1325526 0.124658,0.331245 0.323749,0.557555 0.465647,0.689023 0.146089,0.135348 0.244078,0.18706 0.239504,0.195237 -0.001,0.0018 -0.104748,-0.04002 -0.260086,-0.170252 -0.03349,-0.02808 -0.07007,-0.06134 -0.108071,-0.09937 -0.0426,-0.01397 -0.106905,-0.0338 -0.196331,-0.0532 -0.163393,-0.03544 -0.429375,-0.07034 -0.741123,-0.0066 -0.276731,0.05652 -0.603187,0.19614 -0.884234,0.467534 -0.164632,0.158899 -0.310055,0.362173 -0.41629,0.602656 -0.09528,0.21579 -0.158542,0.460761 -0.172462,0.719982 -0.0131,0.243109 0.01727,0.497889 0.09543,0.746501 0.07334,0.233126 0.188863,0.460656 0.347264,0.660845 0.169474,0.214295 0.389135,0.395868 0.642407,0.522594 0.241263,0.120607 0.51415,0.19108 0.791704,0.186878 0.269126,-0.004 0.542732,-0.0754 0.784506,-0.21534 0.0291,-0.01684 0.05773,-0.03468 0.08583,-0.05346 0.20384,-0.136279 0.374655,-0.319354 0.494882,-0.529643 0.132441,-0.231585 0.203381,-0.495359 0.205074,-0.754924 0.0018,-0.269825 -0.07103,-0.534155 -0.20315,-0.753059 -0.08444,-0.140039 -0.193638,-0.261138 -0.31768,-0.356831 -0.128139,-0.09878 -0.272075,-0.170374 -0.421149,-0.208639 -0.155238,-0.03995 -0.315878,-0.04315 -0.466981,-0.01486 -0.158086,0.02969 -0.305777,0.09392 -0.429003,0.186342 -0.130755,0.09798 -0.234576,0.225543 -0.303392,0.365506 -0.07373,0.149883 -0.107417,0.313548 -0.103196,0.469431 0.0046,0.169886 0.05372,0.330101 0.131969,0.461641 0.08755,0.147244 0.210686,0.258459 0.341704,0.327419 0.108985,0.05744 0.224457,0.08561 0.332258,0.09236 0.126348,0.0079 0.243056,-0.01327 0.341871,-0.05056 0.125788,-0.0474 0.22434,-0.120997 0.294624,-0.189612 0.08191,-0.08 0.132598,-0.159759 0.161691,-0.211326 0.03007,-0.0533 0.04155,-0.08329 0.04414,-0.0822 0.0012,5.16e-4 -0.0065,0.03211 -0.03348,0.08815 -0.02614,0.05426 -0.07422,0.137895 -0.155823,0.222894 -0.06992,0.07287 -0.169619,0.151668 -0.299481,0.20404 -0.102036,0.0411 -0.22333,0.06574 -0.355592,0.05983 -0.112891,-0.005 -0.234479,-0.03254 -0.350567,-0.09149 -0.139254,-0.07081 -0.270723,-0.186176 -0.365298,-0.3412 -0.08446,-0.13852 -0.138386,-0.30746 -0.14491,-0.488047 -0.006,-0.165687 0.02812,-0.339611 0.10538,-0.499837 0.07215,-0.149573 0.181272,-0.28593 0.319834,-0.391236 0.130975,-0.09945 0.287294,-0.168888 0.454937,-0.201275 0.160129,-0.03102 0.330512,-0.02858 0.49618,0.0131 0.158838,0.04006 0.311715,0.115046 0.447679,0.219116 0.131618,0.10068 0.247481,0.228227 0.33747,0.376349 0.140398,0.231315 0.218035,0.509433 0.216626,0.794448 -0.0013,0.247097 -0.06156,0.496878 -0.17549,0.722432 0.07389,-0.03939 0.185441,-0.09484 0.334719,-0.159285 0.246122,-0.106303 0.678422,-0.273083 1.16582,-0.312643 0.213081,-0.01718 0.441281,-0.01095 0.685056,0.02172 0.217593,0.02915 0.439763,0.07778 0.673167,0.143402 0.445333,0.125225 0.821936,0.276069 1.314827,0.452853 0.40691,0.14576 0.857755,0.292666 1.320847,0.353052 0.434694,0.05652 0.904841,0.03929 1.336876,-0.128088 0.118432,-0.04585 0.234111,-0.103145 0.343368,-0.172022 0.166127,-0.104727 0.313983,-0.234074 0.43362,-0.386209 0.204897,-0.260502 0.323162,-0.5863 0.316107,-0.905722 -0.0036,-0.177169 -0.04703,-0.351064 -0.121793,-0.505369 -0.07688,-0.158436 -0.187176,-0.296329 -0.320844,-0.396514 -0.138994,-0.104313 -0.301398,-0.169503 -0.465343,-0.188744 -0.170968,-0.02011 -0.343454,0.0095 -0.492191,0.08147 -0.139114,0.06725 -0.257646,0.171013 -0.34001,0.295671 -0.08686,0.131368 -0.133568,0.285518 -0.135267,0.435453 -0.0013,0.106711 0.02097,0.211499 0.06122,0.304996 0.04222,0.09787 0.104192,0.183454 0.179723,0.247926 0.08017,0.06853 0.174458,0.114263 0.270339,0.134269 0.102535,0.02142 0.206855,0.01367 0.299083,-0.01819 0.0873,-0.03021 0.163751,-0.08155 0.220112,-0.146942 0.06149,-0.0713 0.09879,-0.158423 0.107915,-0.244245 0.01028,-0.09599 -0.01423,-0.189311 -0.06102,-0.258928 -0.05452,-0.08132 -0.137641,-0.129918 -0.216411,-0.142107 -0.112022,-0.01768 -0.211358,0.0342 -0.266825,0.09305 -0.06643,0.07026 -0.08447,0.155972 -0.08865,0.20431 -0.0045,0.05253 0.0032,0.07921 -2.38e-4,0.07989 -3.82e-4,0 -0.01205,-0.02583 -0.01114,-0.08049 8.36e-4,-0.05018 0.01509,-0.141055 0.08383,-0.219323 0.05765,-0.06544 0.162708,-0.125153 0.287089,-0.108966 0.08737,0.01161 0.179899,0.06234 0.242176,0.151683 0.05319,0.07647 0.08234,0.178516 0.07246,0.285287 -0.0089,0.09527 -0.04805,0.191717 -0.114898,0.271191 -0.0612,0.07272 -0.143729,0.130148 -0.238557,0.164135 -0.100118,0.03594 -0.213212,0.04589 -0.325353,0.02375 -0.104817,-0.02072 -0.207786,-0.06915 -0.295935,-0.143055 -0.08323,-0.06987 -0.151566,-0.162057 -0.198167,-0.267935 -0.04453,-0.100992 -0.0696,-0.214355 -0.06912,-0.330849 8.36e-4,-0.16309 0.04983,-0.32996 0.143198,-0.473034 0.08855,-0.135604 0.215321,-0.248309 0.365115,-0.321667 0.02294,-0.01123 0.04643,-0.02141 0.07031,-0.03075 0.02837,-0.03243 0.07047,-0.08195 0.118902,-0.153058 0.08897,-0.130626 0.203026,-0.345851 0.232259,-0.625745 0.02802,-0.266964 -0.02587,-0.593962 -0.21664,-0.875822 -0.07805,-0.115458 -0.177777,-0.220265 -0.295233,-0.306891 -0.131717,-0.09715 -0.276997,-0.164999 -0.424175,-0.20216 -0.325165,-0.08232 -0.639527,-0.01427 -0.868141,0.108333 -0.229066,0.122711 -0.376531,0.296567 -0.460759,0.419745 -0.01017,0.01487 -0.01949,0.02907 -0.02815,0.04265 -0.0054,0.01236 -0.01074,0.02438 -0.01605,0.03565 -0.07084,0.15054 -0.134303,0.217656 -0.136829,0.215847 -0.0061,-0.0043 0.03026,-0.05675 0.07716,-0.161625 0.006,-0.01571 0.0136,-0.03371 0.02292,-0.05376 0.002,-0.0049 0.004,-0.0097 0.006,-0.01473 0.05819,-0.146998 0.124842,-0.381362 0.102599,-0.663089 -0.02091,-0.265933 -0.125031,-0.5762297 -0.351775,-0.8293274 -0.149248,-0.16674 -0.348518,-0.3025632 -0.578227,-0.3777385 -0.06338,-0.020744 -0.127582,-0.036345 -0.1919,-0.046747 -0.315288,-0.051142 -0.622157,0.022542 -0.859567,0.1607231 -0.227947,0.1325819 -0.390008,0.3187838 -0.493032,0.495523 -0.111045,0.1904335 -0.157069,0.3729988 -0.178531,0.4941168 -0.0128,0.07225 -0.01797,0.12557 -0.02149,0.158052 -4.06e-4,0.04789 -0.0043,0.07338 -0.0051,0.07338 C 49.9043,10.314165 49.9098,10.19176 49.86146,9.9801419 49.814527,9.7748756 49.707733,9.4655225 49.46195,9.1841363 49.231652,8.9203101 48.871404,8.6816302 48.42723,8.6211791 c -0.06498,-0.00887 -0.131386,-0.013718 -0.198609,-0.014382 -0.0091,-7.41e-5 -0.01822,-1.235e-4 -0.02735,-7.41e-5 z m 7.857289,5.1880663 c 0,0 -0.04699,0.156436 -0.177966,0.394252 -0.130638,0.23721 -0.351032,0.550483 -0.693827,0.807299 -0.339365,0.254789 -0.784962,0.439573 -1.267499,0.46134 -0.291021,0.01537 -0.591998,-0.03181 -0.901635,-0.110358 -0.294664,-0.07562 -0.5893,-0.184232 -0.890054,-0.297488 -0.01363,-0.0051 -0.0273,-0.01028 -0.04099,-0.01544 -0.314013,-0.11935 -0.646059,-0.247976 -0.992607,-0.353781 -0.354508,-0.10917 -0.718303,-0.187601 -1.088648,-0.210314 -0.597054,-0.03444 -1.132571,0.09488 -1.560364,0.281115 -0.432314,0.187837 -0.743888,0.427655 -0.94259,0.609657 -0.199341,0.182588 -0.292391,0.306306 -0.292391,0.306306 0,0 0.12601,-0.08831 0.358314,-0.204452 0.234366,-0.117172 0.569092,-0.253307 0.987639,-0.329442 0.413,-0.07479 0.885966,-0.08614 1.365882,0.02021 0.301604,0.06518 0.599902,0.174398 0.916262,0.302117 0.309702,0.12595 0.624205,0.268497 0.956066,0.396229 0.01445,0.0056 0.02892,0.01116 0.04343,0.01669 0.319922,0.121815 0.661374,0.226925 1.020678,0.288858 0.379852,0.06649 0.770571,0.07219 1.149163,-0.0031 0.629385,-0.12867 1.123675,-0.475451 1.448627,-0.858153 0.326068,-0.384689 0.47242,-0.787431 0.538158,-1.06074 0.06686,-0.277967 0.06435,-0.440843 0.06435,-0.440843 z m -0.04471,0.912232 c 0,0 -0.04936,0.173386 -0.190819,0.438568 -0.140985,0.264293 -0.380974,0.615538 -0.759183,0.906387 -0.374583,0.28861 -0.870105,0.501601 -1.411603,0.531349 -0.326552,0.02017 -0.664217,-0.0298 -1.010438,-0.116046 -0.329369,-0.08292 -0.657733,-0.202876 -0.99143,-0.328606 -0.01512,-0.0057 -0.03027,-0.01141 -0.04545,-0.01715 -0.348201,-0.132424 -0.714714,-0.275489 -1.095999,-0.393557 -0.390091,-0.121731 -0.789021,-0.210127 -1.195005,-0.237497 -0.654161,-0.0419 -1.243253,0.09486 -1.715622,0.294942 -0.477383,0.201847 -0.823366,0.461608 -1.044974,0.659487 -0.222234,0.198441 -0.326927,0.33341 -0.326927,0.33341 0,0 0.13765,-0.09955 0.392851,-0.23154 0.257266,-0.133064 0.626409,-0.289111 1.090023,-0.379271 0.457568,-0.08865 0.984123,-0.10744 1.521137,0.0064 0.33724,0.06983 0.670699,0.189025 1.022633,0.329301 0.344897,0.138389 0.692925,0.295037 1.05943,0.436022 0.01595,0.0062 0.03192,0.01231 0.04792,0.0184 0.352856,0.13429 0.728048,0.250744 1.122052,0.319975 0.416431,0.07418 0.84383,0.08267 1.25795,0.0026 0.688356,-0.136648 1.232556,-0.511642 1.592731,-0.928162 0.361484,-0.418702 0.527424,-0.859473 0.603514,-1.159846 0.07735,-0.305328 0.0772,-0.485141 0.0772,-0.485141 z"
       style="fill:url(#linearGradient4130);fill-opacity:1;fill-rule:nonzero;stroke:none;stroke-width:0.0364173;stroke-linecap:round;stroke-linejoin:round;stroke-miterlimit:4;stroke-dasharray:none;stroke-opacity:1" />
    <path
       inkscape:connector-curvature="0"
       id="path3881-3"
       d="m 50.183823,5.647211 a 8.2875324,8.570867 0 0 0 -8.287532,8.570867 8.2875324,8.570867 0 0 0 8.287532,8.570867 8.2875324,8.570867 0 0 0 8.287532,-8.570867 8.2875324,8.570867 0 0 0 -0.01228,-0.359318 7.7303873,7.9586624 0 0 1 -7.718146,7.705804 7.7303873,7.9586624 0 0 1 -7.730333,-7.958677 7.7303873,7.9586624 0 0 1 7.403841,-7.946761 8.2875324,8.570867 0 0 0 -0.230612,-0.011915 z"
       style="fill:url(#linearGradient3910-8);fill-opacity:1;fill-rule:nonzero;stroke:none;stroke-width:0.0364173;stroke-linecap:round;stroke-linejoin:round;stroke-miterlimit:4;stroke-dasharray:none;stroke-opacity:1" />
    <path
       inkscape:connector-curvature="0"
       id="ellipse3890-1"
       d="m 50.811577,5.7912732 a 7.520513,7.7425899 0 0 0 -0.122161,0.00443 7.0984323,7.3131094 2.1754285 0 1 6.560804,5.4023838 7.0984323,7.3131094 2.1754285 0 1 -5.025744,8.964256 7.0984323,7.3131094 2.1754285 0 1 -8.690579,-5.156996 7.0984323,7.3131094 2.1754285 0 1 -0.230421,-1.727467 7.520513,7.7425899 0 0 0 -0.01247,0.256024 7.520513,7.7425899 0 0 0 7.520573,7.742533 7.520513,7.7425899 0 0 0 7.520479,-7.742532 7.520513,7.7425899 0 0 0 -7.520479,-7.7426333 z"
       style="fill:url(#linearGradient3918-33);fill-opacity:1;fill-rule:nonzero;stroke:none;stroke-width:0.0364173;stroke-linecap:round;stroke-linejoin:round;stroke-miterlimit:4;stroke-dasharray:none;stroke-opacity:1" />
    <path
       inkscape:connector-curvature="0"
       id="ellipse3897-8"
       d="m 50.396534,5.9353358 a 6.8908887,7.0943726 0 0 0 -6.890916,7.0944012 6.8908887,7.0943726 0 0 0 6.890916,7.094302 6.8908887,7.0943726 0 0 0 0.224613,-0.0082 6.5078517,6.7000246 0 0 1 -6.349427,-6.691854 6.5078517,6.7000246 0 0 1 6.507865,-6.7000269 6.5078517,6.7000246 0 0 1 6.499961,6.4689169 6.8908887,7.0943726 0 0 0 0.0079,-0.163165 6.8908887,7.0943726 0 0 0 -6.890915,-7.0944012 z"
       style="fill:url(#linearGradient3920-81);fill-opacity:1;fill-rule:nonzero;stroke:none;stroke-width:0.0364173;stroke-linecap:round;stroke-linejoin:round;stroke-miterlimit:4;stroke-dasharray:none;stroke-opacity:1" />
    <path
       style="fill:url(#linearGradient3910);fill-opacity:1;fill-rule:nonzero;stroke:none;stroke-width:0.0364173;stroke-linecap:round;stroke-linejoin:round;stroke-miterlimit:4;stroke-dasharray:none;stroke-opacity:1"
       d="m 10.875263,27.549109 a 8.2875324,8.570867 0 0 0 -8.2875326,8.570867 8.2875324,8.570867 0 0 0 8.2875326,8.570867 8.2875324,8.570867 0 0 0 8.287532,-8.570867 8.2875324,8.570867 0 0 0 -0.01228,-0.359318 7.7303873,7.9586624 0 0 1 -7.718146,7.705804 7.7303873,7.9586624 0 0 1 -7.730333,-7.958677 7.7303873,7.9586624 0 0 1 7.40384,-7.946761 8.2875324,8.570867 0 0 0 -0.230611,-0.01191 z"
       id="path3881"
       inkscape:connector-curvature="0" />
    <path
       style="fill:url(#linearGradient3918);fill-opacity:1;fill-rule:nonzero;stroke:none;stroke-width:0.0364173;stroke-linecap:round;stroke-linejoin:round;stroke-miterlimit:4;stroke-dasharray:none;stroke-opacity:1"
       d="m 11.503016,27.693172 a 7.520513,7.7425899 0 0 0 -0.122161,0.0044 7.0984323,7.3131094 2.1754285 0 1 6.560805,5.402384 7.0984323,7.3131094 2.1754285 0 1 -5.025745,8.964256 7.0984323,7.3131094 2.1754285 0 1 -8.690578,-5.156995 7.0984323,7.3131094 2.1754285 0 1 -0.2304211,-1.727468 7.520513,7.7425899 0 0 0 -0.012473,0.256024 7.520513,7.7425899 0 0 0 7.5205731,7.742533 7.520513,7.7425899 0 0 0 7.520479,-7.742533 7.520513,7.7425899 0 0 0 -7.520479,-7.742632 z"
       id="ellipse3890"
       inkscape:connector-curvature="0" />
    <path
       style="fill:url(#linearGradient3920);fill-opacity:1;fill-rule:nonzero;stroke:none;stroke-width:0.0364173;stroke-linecap:round;stroke-linejoin:round;stroke-miterlimit:4;stroke-dasharray:none;stroke-opacity:1"
       d="m 11.087974,27.837234 a 6.8908887,7.0943726 0 0 0 -6.890916,7.094401 6.8908887,7.0943726 0 0 0 6.890916,7.094303 6.8908887,7.0943726 0 0 0 0.224612,-0.0082 6.5078517,6.7000246 0 0 1 -6.3494266,-6.691854 6.5078517,6.7000246 0 0 1 6.5078646,-6.700027 6.5078517,6.7000246 0 0 1 6.499962,6.468917 6.8908887,7.0943726 0 0 0 0.0079,-0.163166 6.8908887,7.0943726 0 0 0 -6.890915,-7.094401 z"
       id="ellipse3897"
       inkscape:connector-curvature="0" />
    <path
       inkscape:connector-curvature="0"
       id="path5475"
       d="m 10.580658,29.618852 c 0,0 0.05412,0.06991 0.132488,0.203163 0.07844,0.133381 0.177118,0.329039 0.247526,0.577282 0.06426,0.227522 0.102575,0.493763 0.07988,0.766172 -0.01759,0.238253 -0.07915,0.478759 -0.174596,0.725999 -0.08677,0.224155 -0.203912,0.441148 -0.342669,0.659524 -0.131627,0.208034 -0.284564,0.411055 -0.452142,0.627693 -0.1719966,0.221518 -0.3347282,0.417266 -0.525867,0.661762 -0.13617,0.173513 -0.274405,0.355113 -0.4096725,0.549056 -0.047537,0.06815 -0.094957,0.138186 -0.1420166,0.210106 -0.1804848,0.274743 -0.3534379,0.578419 -0.5050753,0.909795 -0.1550327,0.337441 -0.277939,0.699851 -0.3582023,1.077937 -0.084318,0.393089 -0.1102383,0.796766 -0.076218,1.190222 0.032506,0.35641 0.117938,0.683339 0.2357984,0.972457 0.1316086,0.323462 0.3023148,0.596389 0.4846411,0.818372 0.2229217,0.270987 0.4605614,0.462252 0.6681777,0.594398 0.2267534,0.144416 0.4268854,0.224245 0.5584405,0.26824 0.134155,0.04486 0.208829,0.05864 0.208829,0.05864 0,0 -0.05009,-0.0597 -0.129543,-0.173186 -0.07911,-0.112996 -0.1861392,-0.280878 -0.2843024,-0.496123 -0.089781,-0.19702 -0.1706625,-0.430772 -0.2161082,-0.689394 -0.037319,-0.211145 -0.050946,-0.43505 -0.035218,-0.663333 0.014231,-0.203616 0.051653,-0.406867 0.1133826,-0.598666 0.044677,-0.143671 0.1042295,-0.285773 0.174148,-0.429068 0.00495,0.0129 0.00999,0.02569 0.015148,0.03835 0.078496,0.192926 0.180307,0.355706 0.289054,0.488105 0.132959,0.161625 0.274698,0.275705 0.398528,0.354522 0.135244,0.08613 0.254604,0.133744 0.333067,0.159984 0.08001,0.02676 0.124558,0.03498 0.124558,0.03498 0,0 -0.02988,-0.03561 -0.07726,-0.103299 -0.04718,-0.0674 -0.111019,-0.167524 -0.169569,-0.295904 -0.05355,-0.11751 -0.10179,-0.25693 -0.128896,-0.411182 -0.02226,-0.125935 -0.03039,-0.259473 -0.02101,-0.395629 0.0085,-0.121444 0.03081,-0.242674 0.06763,-0.35707 0.03963,-0.127444 0.09882,-0.252809 0.168917,-0.381539 0.06822,-0.124793 0.149835,-0.247812 0.238549,-0.376203 0.08807,-0.127205 0.18572,-0.257595 0.285382,-0.397697 0.02614,-0.03658 0.05245,-0.07369 0.0788,-0.111465 0.07474,-0.107095 0.151569,-0.221893 0.227076,-0.344064 0.06097,-0.09824 0.120674,-0.201457 0.17755,-0.30949 0.01517,0.176144 0.04068,0.349422 0.07523,0.517793 0.05736,0.282505 0.133639,0.548176 0.219087,0.792285 0.0627,0.180482 0.129378,0.349422 0.196029,0.505479 0.0235,0.05503 0.04719,0.108899 0.07086,0.16173 0.09017,0.202702 0.18119,0.386358 0.262699,0.561091 0.08165,0.175471 0.158623,0.339009 0.220449,0.500045 0.06334,0.165757 0.118198,0.323175 0.150296,0.480065 0.06658,0.30308 0.04711,0.636723 -0.03974,0.936224 -0.08949,0.310521 -0.246036,0.56187 -0.380938,0.735211 -0.133861,0.172 -0.234104,0.260894 -0.234104,0.260894 0,0 0.128822,0.02024 0.362718,-0.01043 0.228312,-0.02994 0.583109,-0.119658 0.952361,-0.384722 0.358994,-0.258377 0.72558,-0.680836 0.927165,-1.281913 0.102327,-0.311119 0.157996,-0.642136 0.162787,-0.974102 0.0054,-0.318904 -0.0265,-0.632126 -0.08978,-0.928489 -0.06146,-0.290652 -0.144841,-0.560419 -0.2399,-0.804515 -0.02471,-0.06389 -0.05006,-0.126093 -0.07586,-0.186571 -0.07342,-0.172072 -0.151659,-0.332794 -0.229933,-0.484497 -0.104471,-0.203657 -0.211152,-0.391627 -0.306763,-0.567227 -0.09821,-0.181364 -0.189081,-0.345779 -0.265474,-0.510692 -0.08053,-0.172123 -0.14857,-0.339773 -0.194627,-0.511134 -0.05065,-0.188543 -0.08009,-0.3699 -0.07618,-0.548634 0.0018,-0.204551 0.05205,-0.404523 0.121288,-0.574785 0.07591,-0.185956 0.170958,-0.329609 0.245869,-0.427605 0.07462,-0.09761 0.124751,-0.147993 0.124751,-0.147993 0,0 -0.06884,-0.0059 -0.196735,0.0088 -0.124973,0.01436 -0.320249,0.05282 -0.544329,0.163123 -0.206014,0.101122 -0.446025,0.268097 -0.658685,0.53419 -0.07298,0.0923 -0.14164,0.193825 -0.204074,0.303589 0.07967,-0.367252 0.108534,-0.735684 0.08981,-1.08979 -0.02107,-0.419677 -0.119472,-0.805585 -0.266297,-1.133758 -0.171026,-0.377734 -0.401916,-0.652828 -0.613713,-0.841933 -0.230215,-0.205936 -0.44871,-0.320524 -0.592599,-0.382705 -0.147099,-0.06357 -0.230878,-0.08243 -0.230878,-0.08243 z"
       style="fill:url(#linearGradient5497);fill-rule:evenodd;stroke:none;stroke-width:0.0242782px;stroke-linecap:butt;stroke-linejoin:miter;stroke-opacity:1" />
    <path
       id="path5574"
       style="fill:url(#linearGradient9035);fill-opacity:1;stroke:#fcfcb8;stroke-width:0.842802;stroke-miterlimit:4;stroke-dasharray:none;stroke-opacity:1"
       d="m 55.503827,21.948054 a 23.193973,23.98694 0 0 1 1.859299,9.410097 v 0 a 23.193973,23.98694 0 0 1 -0.02415,1.094426" />
    <path
       id="path7738"
       style="fill:url(#linearGradient9037);fill-opacity:1;stroke:#fcfcb8;stroke-width:0.842802;stroke-miterlimit:4;stroke-dasharray:none;stroke-opacity:1"
       d="m 30.84726,7.6185036 a 23.193973,23.98694 0 0 1 3.321893,-0.2472921 23.193973,23.98694 0 0 1 8.536605,1.6837652" />
    <path
       id="path7743"
       style="fill:url(#linearGradient9039);fill-opacity:1;stroke:#fcfcb8;stroke-width:0.842802;stroke-miterlimit:4;stroke-dasharray:none;stroke-opacity:1"
       d="m 11.470998,26.424937 a 23.193973,23.98694 0 0 1 4.051126,-9.331416" />
    <path
       id="path7908"
       style="fill:url(#linearGradient9041);fill-opacity:1;stroke:#fcfcb8;stroke-width:0.842802;stroke-miterlimit:4;stroke-dasharray:none;stroke-opacity:1"
       d="M 22.541803,52.11329 A 23.193973,23.98694 0 0 1 14.82301,44.589588" />
    <path
       id="path7993"
       style="fill:url(#linearGradient9043);fill-opacity:1;stroke:#fcfcb8;stroke-width:0.842802;stroke-miterlimit:4;stroke-dasharray:none;stroke-opacity:1"
       d="m 49.685037,49.187566 a 23.193973,23.98694 0 0 1 -9.449678,5.322586" />
  </g>
</svg>
