<?xml version="1.0" encoding="UTF-8" standalone="no"?>
<!-- Created with Inkscape (http://www.inkscape.org/) -->

<svg
   width="210mm"
   height="297mm"
   viewBox="0 0 210 297"
   version="1.1"
   id="svg5"
   inkscape:version="1.1 (c68e22c387, 2021-05-23)"
   sodipodi:docname="SmartBoardLogo.svg"
   xmlns:inkscape="http://www.inkscape.org/namespaces/inkscape"
   xmlns:sodipodi="http://sodipodi.sourceforge.net/DTD/sodipodi-0.dtd"
   xmlns="http://www.w3.org/2000/svg"
   xmlns:svg="http://www.w3.org/2000/svg">
  <sodipodi:namedview
     id="namedview7"
     pagecolor="#505050"
     bordercolor="#ffffff"
     borderopacity="1"
     inkscape:pageshadow="0"
     inkscape:pageopacity="0"
     inkscape:pagecheckerboard="1"
     inkscape:document-units="mm"
     showgrid="false"
     inkscape:zoom="1.6017536"
     inkscape:cx="108.00662"
     inkscape:cy="130.79415"
     inkscape:window-width="5120"
     inkscape:window-height="1377"
     inkscape:window-x="-8"
     inkscape:window-y="-8"
     inkscape:window-maximized="1"
     inkscape:current-layer="layer1" />
  <defs
     id="defs2" />
  <g
     inkscape:label="Layer 1"
     inkscape:groupmode="layer"
     id="layer1">
    <g
       id="g11378"
       transform="translate(0,-0.02132565)">
      <rect
         style="fill:#ffffff;stroke-width:0.249645"
         id="rect846"
         width="10"
         height="10"
         x="16.187986"
         y="8.5069523" />
      <rect
         style="fill:none;stroke:#ffffff;stroke-width:0.249645"
         id="rect846-3"
         width="10"
         height="10"
         x="27.246323"
         y="8.5069532" />
      <rect
         style="fill:none;stroke:#ffffff;stroke-width:0.249645"
         id="rect846-89"
         width="10"
         height="10"
         x="38.304657"
         y="19.565285" />
      <rect
         style="fill:#ffffff;stroke-width:0.249645"
         id="rect846-8"
         width="10"
         height="10"
         x="16.187986"
         y="19.565287" />
      <rect
         style="fill:#ffffff;stroke-width:0.249645"
         id="rect846-9"
         width="10"
         height="10"
         x="27.246321"
         y="19.565287" />
      <rect
         style="fill:#ff0000;stroke-width:0.249645"
         id="rect846-4"
         width="10"
         height="10"
         x="16.187986"
         y="30.623621" />
      <rect
         style="fill:#ffffff;stroke-width:0.249645"
         id="rect846-7"
         width="10"
         height="10"
         x="27.246321"
         y="30.623619" />
      <rect
         style="fill:#ffffff;stroke-width:0.249645"
         id="rect846-6"
         width="10"
         height="10"
         x="38.304657"
         y="30.623619" />
      <rect
         style="fill:none;stroke:#ffffff;stroke-width:0.249645"
         id="rect846-0"
         width="10"
         height="10"
         x="38.304657"
         y="8.5069523" />
    </g>
    <text
       xml:space="preserve"
       style="font-style:normal;font-variant:normal;font-weight:800;font-stretch:normal;font-size:10.5833px;line-height:1.25;font-family:Raleway;-inkscape-font-specification:'Raleway, Ultra-Bold';font-variant-ligatures:normal;font-variant-caps:normal;font-variant-numeric:normal;font-variant-east-asian:normal;fill:#ffffff;fill-opacity:1;stroke:none;stroke-width:0.264583"
       x="136.11122"
       y="24.199389"
       id="text3390"><tspan
         sodipodi:role="line"
         id="tspan3388"
         style="font-style:normal;font-variant:normal;font-weight:800;font-stretch:normal;font-size:10.5833px;font-family:Raleway;-inkscape-font-specification:'Raleway, Ultra-Bold';font-variant-ligatures:normal;font-variant-caps:normal;font-variant-numeric:normal;font-variant-east-asian:normal;fill:#ffffff;stroke-width:0.264583"
         x="136.11122"
         y="24.199389">Smart</tspan><tspan
         sodipodi:role="line"
         style="font-style:normal;font-variant:normal;font-weight:800;font-stretch:normal;font-size:10.5833px;font-family:Raleway;-inkscape-font-specification:'Raleway, Ultra-Bold';font-variant-ligatures:normal;font-variant-caps:normal;font-variant-numeric:normal;font-variant-east-asian:normal;fill:#ffffff;stroke-width:0.264583"
         x="136.11122"
         y="37.428513"
         id="tspan3392" /></text>
    <text
       xml:space="preserve"
       style="font-style:normal;font-variant:normal;font-weight:800;font-stretch:normal;font-size:10.5833px;line-height:1.25;font-family:Raleway;-inkscape-font-specification:'Raleway, Ultra-Bold';font-variant-ligatures:normal;font-variant-caps:normal;font-variant-numeric:normal;font-variant-east-asian:normal;fill:#ffffff;fill-opacity:1;stroke:none;stroke-width:0.264583"
       x="137.62914"
       y="22.064056"
       id="text3390-4"><tspan
         sodipodi:role="line"
         id="tspan3388-5"
         style="font-style:normal;font-variant:normal;font-weight:800;font-stretch:normal;font-size:10.5833px;font-family:Raleway;-inkscape-font-specification:'Raleway, Ultra-Bold';font-variant-ligatures:normal;font-variant-caps:normal;font-variant-numeric:normal;font-variant-east-asian:normal;fill:#ffffff;stroke-width:0.264583"
         x="137.62914"
         y="22.064056" /><tspan
         sodipodi:role="line"
         style="font-style:normal;font-variant:normal;font-weight:800;font-stretch:normal;font-size:10.5833px;font-family:Raleway;-inkscape-font-specification:'Raleway, Ultra-Bold';font-variant-ligatures:normal;font-variant-caps:normal;font-variant-numeric:normal;font-variant-east-asian:normal;fill:#ffffff;stroke-width:0.264583"
         x="137.62914"
         y="35.293179"
         id="tspan3392-5">Board</tspan></text>
    <g
       aria-label="Smart
Board"
       id="text3390-8"
       style="font-weight:800;font-size:10.5833px;line-height:1.25;font-family:Raleway;-inkscape-font-specification:'Raleway, Ultra-Bold';fill:#ffffff;stroke-width:0.264583">
      <path
         d="m 55.640374,21.954521 q -0.03175,-0.05292 -0.222249,-0.158749 -0.1905,-0.116416 -0.476249,-0.243416 -0.285749,-0.127 -0.624415,-0.222249 -0.338665,-0.09525 -0.677331,-0.09525 -0.444498,0 -0.687914,0.15875 -0.243416,0.148166 -0.243416,0.465665 0,0.253999 0.179916,0.402165 0.190499,0.148166 0.539748,0.264583 0.349249,0.105833 0.857247,0.253999 0.719665,0.190499 1.24883,0.465665 0.529165,0.264582 0.804331,0.687914 0.285749,0.423332 0.285749,1.12183 0,0.634998 -0.232833,1.079497 -0.232832,0.433915 -0.634998,0.709081 -0.391582,0.264582 -0.89958,0.391582 -0.507999,0.116416 -1.047747,0.116416 -0.550332,0 -1.132413,-0.105833 -0.571498,-0.116416 -1.100663,-0.317499 -0.529165,-0.211666 -0.973664,-0.507998 l 0.761998,-1.513412 q 0.04233,0.05292 0.275166,0.201083 0.232832,0.137583 0.571498,0.296332 0.349249,0.148166 0.772581,0.264583 0.423332,0.116416 0.857247,0.116416 0.465665,0 0.687914,-0.148166 0.232833,-0.148167 0.232833,-0.412749 0,-0.285749 -0.243416,-0.444499 -0.232833,-0.158749 -0.645581,-0.285749 -0.402166,-0.126999 -0.931331,-0.285749 -0.687914,-0.211666 -1.142996,-0.476248 -0.444499,-0.264583 -0.666748,-0.645582 -0.211666,-0.380998 -0.211666,-0.952497 0,-0.793747 0.370416,-1.333495 0.380998,-0.550332 1.015996,-0.825498 0.634998,-0.285749 1.386413,-0.285749 0.529165,0 1.015996,0.127 0.497416,0.126999 0.920748,0.317499 0.433915,0.190499 0.77258,0.380999 z"
         id="path11380" />
      <path
         d="m 66.234243,27.267338 h -1.693328 v -3.122074 q 0,-0.539748 -0.201083,-0.793747 -0.201082,-0.253999 -0.518581,-0.253999 -0.338666,0 -0.666748,0.275166 -0.328082,0.275165 -0.465665,0.709081 v 3.185573 H 60.99551 v -3.122074 q 0,-0.550331 -0.201083,-0.793747 -0.201083,-0.253999 -0.518582,-0.253999 -0.328082,0 -0.656164,0.275166 -0.328082,0.275165 -0.476249,0.709081 v 3.185573 H 57.450104 V 21.711105 H 58.9741 v 0.931331 q 0.306915,-0.497415 0.825497,-0.761998 0.529165,-0.275166 1.227663,-0.275166 0.687914,0 1.05833,0.328083 0.370415,0.317499 0.476248,0.751414 0.317499,-0.518582 0.836081,-0.793747 0.529165,-0.28575 1.185329,-0.28575 0.529165,0 0.857248,0.201083 0.328082,0.1905 0.497415,0.507999 0.169333,0.317499 0.232832,0.687914 0.0635,0.359832 0.0635,0.709081 z"
         id="path11382" />
      <path
         d="m 66.996234,25.60576 q 0,-0.550332 0.306915,-0.963081 0.306916,-0.412748 0.846664,-0.645581 0.539749,-0.243416 1.238246,-0.243416 0.338666,0 0.666748,0.0635 0.328083,0.05292 0.571498,0.15875 v -0.243416 q 0,-0.455082 -0.275165,-0.698498 -0.275166,-0.243416 -0.836081,-0.243416 -0.465665,0 -0.878414,0.15875 -0.402165,0.158749 -0.857247,0.455081 l -0.507999,-1.079496 q 0.550332,-0.359832 1.142997,-0.539748 0.603248,-0.179917 1.269996,-0.179917 1.248829,0 1.936744,0.603249 0.698497,0.592664 0.698497,1.725077 v 1.449912 q 0,0.254 0.07408,0.359833 0.08467,0.09525 0.28575,0.116416 v 1.407579 q -0.211666,0.04233 -0.402166,0.0635 -0.179916,0.02117 -0.317499,0.02117 -0.476248,0 -0.730248,-0.190499 -0.243415,-0.1905 -0.306915,-0.518582 l -0.03175,-0.243416 q -0.370416,0.476249 -0.888997,0.730248 -0.507999,0.243416 -1.068914,0.243416 -0.550331,0 -0.99483,-0.232833 -0.433915,-0.232832 -0.687914,-0.634998 -0.253999,-0.402165 -0.253999,-0.89958 z m 3.365489,0.211666 q 0.116416,-0.09525 0.190499,-0.211666 0.07408,-0.116417 0.07408,-0.22225 v -0.497415 q -0.211666,-0.08467 -0.476248,-0.126999 -0.253999,-0.05292 -0.476249,-0.05292 -0.465665,0 -0.77258,0.211666 -0.306916,0.201083 -0.306916,0.539749 0,0.190499 0.105833,0.349248 0.105833,0.15875 0.285749,0.254 0.190499,0.09525 0.444499,0.09525 0.253999,0 0.507998,-0.09525 0.253999,-0.09525 0.423332,-0.243416 z"
         id="path11384" />
      <path
         d="m 77.071521,23.161018 q -0.613832,0 -1.111247,0.201082 -0.497415,0.1905 -0.719664,0.571498 v 3.33374 h -1.693328 v -5.556233 h 1.555745 v 1.12183 q 0.285749,-0.560915 0.740831,-0.878414 0.455082,-0.317499 0.952497,-0.328082 0.116416,0 0.169333,0 0.0635,0 0.105833,0.01058 z"
         id="path11386" />
      <path
         d="m 81.37892,26.971005 q -0.232832,0.09525 -0.518581,0.1905 -0.275166,0.09525 -0.582082,0.148166 -0.306916,0.0635 -0.603248,0.0635 -0.423332,0 -0.783164,-0.137583 -0.349249,-0.148166 -0.560915,-0.476249 -0.201083,-0.328082 -0.201083,-0.86783 v -2.899824 h -0.709081 v -1.28058 h 0.709081 v -1.767411 h 1.693328 v 1.767411 h 1.132413 v 1.28058 h -1.132413 v 2.317742 q 0,0.275166 0.137583,0.402166 0.137583,0.116416 0.349249,0.116416 0.179916,0 0.380999,-0.0635 0.211666,-0.0635 0.359832,-0.137583 z"
         id="path11388" />
      <path
         d="m 57.344285,38.570302 q 0,0.645581 -0.349249,1.079496 -0.338665,0.423332 -0.920747,0.634998 -0.582081,0.211666 -1.280579,0.211666 H 51.131888 V 32.98232 h 4.180404 q 0.529165,0 0.910163,0.285749 0.391582,0.275165 0.592665,0.719664 0.211666,0.444499 0.211666,0.920747 0,0.529165 -0.275166,1.015997 -0.275165,0.476248 -0.80433,0.719664 0.645581,0.1905 1.015996,0.677331 0.380999,0.486832 0.380999,1.24883 z m -1.767411,-0.349249 q 0,-0.243416 -0.09525,-0.423332 -0.09525,-0.190499 -0.253999,-0.296332 -0.148166,-0.116417 -0.359832,-0.116417 h -2.000244 v 1.640412 h 1.926161 q 0.222249,0 0.391582,-0.105833 0.179916,-0.105833 0.285749,-0.285749 0.105833,-0.179916 0.105833,-0.412749 z m -2.709325,-3.757071 v 1.555745 h 1.703912 q 0.190499,0 0.349248,-0.08467 0.169333,-0.08467 0.275166,-0.253999 0.105833,-0.179916 0.105833,-0.444499 0,-0.253999 -0.09525,-0.423332 -0.08467,-0.169332 -0.232833,-0.253999 -0.148166,-0.09525 -0.338666,-0.09525 z"
         id="path11390" />
      <path
         d="m 60.879087,40.602295 q -0.709081,0 -1.269996,-0.232832 -0.550331,-0.232833 -0.93133,-0.634998 -0.380999,-0.402166 -0.582082,-0.920747 -0.190499,-0.518582 -0.190499,-1.09008 0,-0.582082 0.190499,-1.100663 0.201083,-0.518582 0.582082,-0.920747 0.380999,-0.402166 0.93133,-0.634998 0.560915,-0.232833 1.269996,-0.232833 0.709081,0 1.259413,0.232833 0.550331,0.232832 0.93133,0.634998 0.380999,0.402165 0.582082,0.920747 0.201082,0.518581 0.201082,1.100663 0,0.571498 -0.201082,1.09008 -0.201083,0.518581 -0.582082,0.920747 -0.380999,0.402165 -0.93133,0.634998 -0.550332,0.232832 -1.259413,0.232832 z m -1.238246,-2.878657 q 0,0.433915 0.15875,0.761997 0.169332,0.328083 0.444498,0.507999 0.275166,0.179916 0.634998,0.179916 0.349249,0 0.624415,-0.179916 0.285749,-0.1905 0.444498,-0.518582 0.15875,-0.328082 0.15875,-0.751414 0,-0.433915 -0.15875,-0.761998 -0.158749,-0.328082 -0.444498,-0.507998 -0.275166,-0.179916 -0.624415,-0.179916 -0.359832,0 -0.634998,0.179916 -0.275166,0.179916 -0.444498,0.507998 -0.15875,0.328083 -0.15875,0.761998 z"
         id="path11392" />
      <path
         d="m 64.339812,38.834884 q 0,-0.550331 0.306916,-0.96308 0.306915,-0.412749 0.846664,-0.645581 0.539748,-0.243416 1.238246,-0.243416 0.338665,0 0.666748,0.0635 0.328082,0.05292 0.571498,0.158749 V 36.96164 q 0,-0.455082 -0.275166,-0.698498 -0.275166,-0.243415 -0.836081,-0.243415 -0.465665,0 -0.878414,0.158749 -0.402165,0.15875 -0.857247,0.455082 l -0.507998,-1.079497 q 0.550331,-0.359832 1.142996,-0.539748 0.603248,-0.179916 1.269996,-0.179916 1.248829,0 1.936744,0.603248 0.698498,0.592665 0.698498,1.725078 v 1.449912 q 0,0.253999 0.07408,0.359832 0.08467,0.09525 0.285749,0.116416 v 1.407579 q -0.211666,0.04233 -0.402166,0.0635 -0.179916,0.02117 -0.317499,0.02117 -0.476248,0 -0.730247,-0.1905 -0.243416,-0.190499 -0.306916,-0.518581 l -0.03175,-0.243416 q -0.370415,0.476248 -0.888997,0.730247 -0.507998,0.243416 -1.068913,0.243416 -0.550332,0 -0.99483,-0.232832 -0.433916,-0.232833 -0.687915,-0.634998 -0.253999,-0.402166 -0.253999,-0.899581 z m 3.365489,0.211666 q 0.116417,-0.09525 0.1905,-0.211666 0.07408,-0.116416 0.07408,-0.222249 V 38.11522 q -0.211666,-0.08467 -0.476249,-0.127 -0.253999,-0.05292 -0.476248,-0.05292 -0.465665,0 -0.772581,0.211666 -0.306916,0.201083 -0.306916,0.539748 0,0.1905 0.105833,0.349249 0.105833,0.158749 0.285749,0.253999 0.1905,0.09525 0.444499,0.09525 0.253999,0 0.507998,-0.09525 0.253999,-0.09525 0.423332,-0.243416 z"
         id="path11394" />
      <path
         d="m 74.415097,36.390142 q -0.613831,0 -1.111246,0.201083 -0.497415,0.190499 -0.719665,0.571498 v 3.333739 H 70.890858 V 34.94023 h 1.555745 v 1.12183 q 0.285749,-0.560915 0.740831,-0.878414 0.455082,-0.317499 0.952497,-0.328082 0.116417,0 0.169333,0 0.0635,0 0.105833,0.01058 z"
         id="path11396" />
      <path
         d="m 74.774924,37.713055 q 0,-0.814915 0.317499,-1.460496 0.317499,-0.656164 0.867831,-1.037163 0.550331,-0.380999 1.269996,-0.380999 0.582081,0 1.05833,0.285749 0.476248,0.275166 0.719664,0.730248 v -3.07974 h 1.693328 v 5.841981 q 0,0.253999 0.08467,0.359832 0.08467,0.09525 0.275166,0.116416 v 1.407579 q -0.444498,0.08467 -0.719664,0.08467 -0.433916,0 -0.709081,-0.1905 -0.264583,-0.190499 -0.328083,-0.529165 l -0.03175,-0.285749 q -0.296332,0.518582 -0.80433,0.772581 -0.507999,0.253999 -1.068914,0.253999 -0.571498,0 -1.05833,-0.211666 -0.476248,-0.222249 -0.83608,-0.613831 -0.349249,-0.391582 -0.539748,-0.920747 -0.1905,-0.529165 -0.1905,-1.142996 z m 4.243903,0.687914 v -1.164163 q -0.105833,-0.285749 -0.306915,-0.497415 -0.1905,-0.211666 -0.444499,-0.338666 -0.243416,-0.126999 -0.497415,-0.126999 -0.275166,0 -0.507998,0.116416 -0.22225,0.116416 -0.391583,0.328082 -0.169332,0.201083 -0.264582,0.465666 -0.08467,0.264582 -0.08467,0.560914 0,0.306916 0.09525,0.571499 0.105833,0.253999 0.285749,0.455082 0.179916,0.190499 0.423332,0.296332 0.243416,0.105833 0.529165,0.105833 0.179916,0 0.349249,-0.05292 0.169333,-0.0635 0.317499,-0.158749 0.15875,-0.09525 0.285749,-0.243416 0.127,-0.148166 0.211666,-0.317499 z"
         id="path11398" />
    </g>
  </g>
</svg>
